<mxfile host="app.diagrams.net" modified="2024-02-13T18:58:33.570Z" agent="Mozilla/5.0 (Windows NT 10.0; Win64; x64) AppleWebKit/537.36 (KHTML, like Gecko) Chrome/121.0.0.0 Safari/537.36 Edg/121.0.0.0" etag="oJBkTi1URyhYgFPBpnvU" version="23.1.4" type="github">
  <diagram name="PÃ¡gina-1" id="hkWWeiboVe9sUNlQPaUf">
    <mxGraphModel dx="4428" dy="3624" grid="1" gridSize="10" guides="1" tooltips="1" connect="1" arrows="1" fold="1" page="1" pageScale="1" pageWidth="1100" pageHeight="850" background="#FF99CC" math="0" shadow="0">
      <root>
        <mxCell id="0" />
        <mxCell id="1" parent="0" />
        <mxCell id="j6Lws621C_ySIaAUtMNY-6" value="INICIO" style="ellipse;whiteSpace=wrap;html=1;fillColor=#F45B69;strokeColor=#028090;labelBackgroundColor=none;fontColor=#E4FDE1;rounded=1;" vertex="1" parent="1">
          <mxGeometry x="-560" y="-1450" width="120" height="80" as="geometry" />
        </mxCell>
        <mxCell id="j6Lws621C_ySIaAUtMNY-10" style="edgeStyle=orthogonalEdgeStyle;rounded=1;orthogonalLoop=1;jettySize=auto;html=1;exitX=1;exitY=0.5;exitDx=0;exitDy=0;labelBackgroundColor=none;strokeColor=#028090;fontColor=default;" edge="1" parent="1" source="j6Lws621C_ySIaAUtMNY-8" target="j6Lws621C_ySIaAUtMNY-9">
          <mxGeometry relative="1" as="geometry" />
        </mxCell>
        <mxCell id="j6Lws621C_ySIaAUtMNY-67" style="edgeStyle=orthogonalEdgeStyle;rounded=1;orthogonalLoop=1;jettySize=auto;html=1;exitX=0.5;exitY=1;exitDx=0;exitDy=0;entryX=1;entryY=0.5;entryDx=0;entryDy=0;strokeColor=#028090;fontColor=#E4FDE1;fillColor=#F45B69;" edge="1" parent="1" source="j6Lws621C_ySIaAUtMNY-9" target="j6Lws621C_ySIaAUtMNY-11">
          <mxGeometry relative="1" as="geometry" />
        </mxCell>
        <mxCell id="j6Lws621C_ySIaAUtMNY-9" value="SALDO INICIAL&quot;+ SALDO" style="ellipse;whiteSpace=wrap;html=1;fillColor=#F45B69;strokeColor=#028090;labelBackgroundColor=none;fontColor=#E4FDE1;rounded=1;" vertex="1" parent="1">
          <mxGeometry x="-160" y="-1390" width="120" height="90" as="geometry" />
        </mxCell>
        <mxCell id="j6Lws621C_ySIaAUtMNY-68" style="edgeStyle=orthogonalEdgeStyle;rounded=1;orthogonalLoop=1;jettySize=auto;html=1;strokeColor=#028090;fontColor=#E4FDE1;fillColor=#F45B69;" edge="1" parent="1" source="j6Lws621C_ySIaAUtMNY-11" target="j6Lws621C_ySIaAUtMNY-14">
          <mxGeometry relative="1" as="geometry" />
        </mxCell>
        <mxCell id="j6Lws621C_ySIaAUtMNY-11" value="ENCERRAR = &quot;N&quot;" style="shape=trapezoid;perimeter=trapezoidPerimeter;whiteSpace=wrap;html=1;fixedSize=1;fillColor=#F45B69;strokeColor=#028090;labelBackgroundColor=none;fontColor=#E4FDE1;rounded=1;" vertex="1" parent="1">
          <mxGeometry x="-560" y="-1250" width="120" height="60" as="geometry" />
        </mxCell>
        <mxCell id="j6Lws621C_ySIaAUtMNY-69" style="edgeStyle=orthogonalEdgeStyle;rounded=1;orthogonalLoop=1;jettySize=auto;html=1;entryX=0.5;entryY=0;entryDx=0;entryDy=0;strokeColor=#028090;fontColor=#E4FDE1;fillColor=#F45B69;" edge="1" parent="1" source="j6Lws621C_ySIaAUtMNY-14" target="j6Lws621C_ySIaAUtMNY-16">
          <mxGeometry relative="1" as="geometry" />
        </mxCell>
        <mxCell id="j6Lws621C_ySIaAUtMNY-72" style="edgeStyle=orthogonalEdgeStyle;rounded=1;orthogonalLoop=1;jettySize=auto;html=1;strokeColor=#028090;fontColor=#E4FDE1;fillColor=#F45B69;" edge="1" parent="1" source="j6Lws621C_ySIaAUtMNY-14" target="j6Lws621C_ySIaAUtMNY-42">
          <mxGeometry relative="1" as="geometry">
            <mxPoint x="-430" y="1" as="targetPoint" />
            <Array as="points">
              <mxPoint x="220" y="-1025" />
              <mxPoint x="220" y="10" />
            </Array>
          </mxGeometry>
        </mxCell>
        <mxCell id="j6Lws621C_ySIaAUtMNY-14" value="ENCERRAR =&quot;n&quot;" style="triangle;whiteSpace=wrap;html=1;direction=north;fillColor=#F45B69;strokeColor=#028090;labelBackgroundColor=none;fontColor=#E4FDE1;rounded=1;" vertex="1" parent="1">
          <mxGeometry x="-575" y="-1060" width="150" height="70" as="geometry" />
        </mxCell>
        <mxCell id="j6Lws621C_ySIaAUtMNY-70" style="edgeStyle=orthogonalEdgeStyle;rounded=1;orthogonalLoop=1;jettySize=auto;html=1;exitX=0.5;exitY=1;exitDx=0;exitDy=0;strokeColor=#028090;fontColor=#E4FDE1;fillColor=#F45B69;" edge="1" parent="1" source="j6Lws621C_ySIaAUtMNY-16" target="j6Lws621C_ySIaAUtMNY-19">
          <mxGeometry relative="1" as="geometry" />
        </mxCell>
        <mxCell id="j6Lws621C_ySIaAUtMNY-16" value="TIPO DE ENTRADA" style="rounded=1;whiteSpace=wrap;html=1;fillColor=#F45B69;strokeColor=#028090;labelBackgroundColor=none;fontColor=#E4FDE1;" vertex="1" parent="1">
          <mxGeometry x="-560" y="-950" width="120" height="60" as="geometry" />
        </mxCell>
        <mxCell id="j6Lws621C_ySIaAUtMNY-18" style="edgeStyle=orthogonalEdgeStyle;rounded=1;orthogonalLoop=1;jettySize=auto;html=1;exitX=0;exitY=0.5;exitDx=0;exitDy=0;entryX=-0.05;entryY=0.55;entryDx=0;entryDy=0;entryPerimeter=0;labelBackgroundColor=none;strokeColor=#028090;fontColor=default;" edge="1" parent="1" source="j6Lws621C_ySIaAUtMNY-16" target="j6Lws621C_ySIaAUtMNY-16">
          <mxGeometry relative="1" as="geometry" />
        </mxCell>
        <mxCell id="j6Lws621C_ySIaAUtMNY-47" style="edgeStyle=orthogonalEdgeStyle;rounded=1;orthogonalLoop=1;jettySize=auto;html=1;exitX=0.5;exitY=1;exitDx=0;exitDy=0;strokeColor=#028090;fontColor=#E4FDE1;fillColor=#F45B69;" edge="1" parent="1" source="j6Lws621C_ySIaAUtMNY-19" target="j6Lws621C_ySIaAUtMNY-33">
          <mxGeometry relative="1" as="geometry" />
        </mxCell>
        <mxCell id="j6Lws621C_ySIaAUtMNY-19" value="QUANTIDADE" style="rounded=1;whiteSpace=wrap;html=1;fillColor=#F45B69;strokeColor=#028090;labelBackgroundColor=none;fontColor=#E4FDE1;" vertex="1" parent="1">
          <mxGeometry x="-560" y="-820" width="120" height="60" as="geometry" />
        </mxCell>
        <mxCell id="j6Lws621C_ySIaAUtMNY-23" value="SALDO = SALDO + QUANTIDADE" style="shape=hexagon;perimeter=hexagonPerimeter2;whiteSpace=wrap;html=1;fixedSize=1;fillColor=#F45B69;strokeColor=#028090;labelBackgroundColor=none;fontColor=#E4FDE1;rounded=1;" vertex="1" parent="1">
          <mxGeometry x="-300" y="-750" width="120" height="80" as="geometry" />
        </mxCell>
        <mxCell id="j6Lws621C_ySIaAUtMNY-24" value="ENTRADA + QUANTIDADE" style="ellipse;whiteSpace=wrap;html=1;aspect=fixed;fillColor=#F45B69;strokeColor=#028090;fontStyle=1;labelBackgroundColor=none;fontColor=#E4FDE1;rounded=1;" vertex="1" parent="1">
          <mxGeometry x="60" y="-750" width="80" height="80" as="geometry" />
        </mxCell>
        <mxCell id="j6Lws621C_ySIaAUtMNY-26" value="" style="endArrow=classic;html=1;rounded=1;labelBackgroundColor=none;strokeColor=#028090;fontColor=default;" edge="1" parent="1" source="j6Lws621C_ySIaAUtMNY-23" target="j6Lws621C_ySIaAUtMNY-24">
          <mxGeometry width="50" height="50" relative="1" as="geometry">
            <mxPoint x="-60" y="755" as="sourcePoint" />
            <mxPoint x="-10" y="705" as="targetPoint" />
          </mxGeometry>
        </mxCell>
        <mxCell id="j6Lws621C_ySIaAUtMNY-27" value="" style="edgeStyle=orthogonalEdgeStyle;rounded=1;orthogonalLoop=1;jettySize=auto;html=1;exitX=0.5;exitY=1;exitDx=0;exitDy=0;labelBackgroundColor=none;strokeColor=#028090;fontColor=default;" edge="1" parent="1" source="j6Lws621C_ySIaAUtMNY-6" target="j6Lws621C_ySIaAUtMNY-8">
          <mxGeometry relative="1" as="geometry">
            <mxPoint x="-330" y="150" as="targetPoint" />
            <mxPoint x="-320" y="-180" as="sourcePoint" />
          </mxGeometry>
        </mxCell>
        <mxCell id="j6Lws621C_ySIaAUtMNY-8" value="SALDO" style="shape=parallelogram;perimeter=parallelogramPerimeter;whiteSpace=wrap;html=1;fixedSize=1;fillColor=#F45B69;strokeColor=#028090;labelBackgroundColor=none;fontColor=#E4FDE1;rounded=1;" vertex="1" parent="1">
          <mxGeometry x="-550" y="-1340" width="120" height="60" as="geometry" />
        </mxCell>
        <mxCell id="j6Lws621C_ySIaAUtMNY-49" style="edgeStyle=orthogonalEdgeStyle;rounded=1;orthogonalLoop=1;jettySize=auto;html=1;exitX=1;exitY=0.5;exitDx=0;exitDy=0;strokeColor=#028090;fontColor=#E4FDE1;fillColor=#F45B69;" edge="1" parent="1" source="j6Lws621C_ySIaAUtMNY-33" target="j6Lws621C_ySIaAUtMNY-34">
          <mxGeometry relative="1" as="geometry" />
        </mxCell>
        <mxCell id="j6Lws621C_ySIaAUtMNY-57" style="edgeStyle=orthogonalEdgeStyle;rounded=1;orthogonalLoop=1;jettySize=auto;html=1;exitX=0.5;exitY=1;exitDx=0;exitDy=0;strokeColor=#028090;fontColor=#E4FDE1;fillColor=#F45B69;" edge="1" parent="1" source="j6Lws621C_ySIaAUtMNY-33" target="j6Lws621C_ySIaAUtMNY-40">
          <mxGeometry relative="1" as="geometry" />
        </mxCell>
        <mxCell id="j6Lws621C_ySIaAUtMNY-33" value="TIPO ENTRADA =2" style="rhombus;whiteSpace=wrap;html=1;labelBackgroundColor=none;fillColor=#F45B69;strokeColor=#028090;fontColor=#E4FDE1;rounded=1;" vertex="1" parent="1">
          <mxGeometry x="-565" y="-590" width="140" height="100" as="geometry" />
        </mxCell>
        <mxCell id="j6Lws621C_ySIaAUtMNY-50" style="edgeStyle=orthogonalEdgeStyle;rounded=1;orthogonalLoop=1;jettySize=auto;html=1;exitX=1;exitY=0.5;exitDx=0;exitDy=0;strokeColor=#028090;fontColor=#E4FDE1;fillColor=#F45B69;" edge="1" parent="1" source="j6Lws621C_ySIaAUtMNY-34" target="j6Lws621C_ySIaAUtMNY-35">
          <mxGeometry relative="1" as="geometry" />
        </mxCell>
        <mxCell id="j6Lws621C_ySIaAUtMNY-52" style="edgeStyle=orthogonalEdgeStyle;rounded=1;orthogonalLoop=1;jettySize=auto;html=1;exitX=0.5;exitY=1;exitDx=0;exitDy=0;strokeColor=#028090;fontColor=#E4FDE1;fillColor=#F45B69;" edge="1" parent="1" source="j6Lws621C_ySIaAUtMNY-34" target="j6Lws621C_ySIaAUtMNY-36">
          <mxGeometry relative="1" as="geometry" />
        </mxCell>
        <mxCell id="j6Lws621C_ySIaAUtMNY-34" value="SALDO &amp;gt;= QUANTIDADE" style="rhombus;whiteSpace=wrap;html=1;labelBackgroundColor=none;fillColor=#F45B69;strokeColor=#028090;fontColor=#E4FDE1;rounded=1;" vertex="1" parent="1">
          <mxGeometry x="-320" y="-600" width="160" height="150" as="geometry" />
        </mxCell>
        <mxCell id="j6Lws621C_ySIaAUtMNY-51" style="edgeStyle=orthogonalEdgeStyle;rounded=1;orthogonalLoop=1;jettySize=auto;html=1;exitX=0.75;exitY=1;exitDx=0;exitDy=0;entryX=0.625;entryY=0;entryDx=0;entryDy=0;strokeColor=#028090;fontColor=#E4FDE1;fillColor=#F45B69;" edge="1" parent="1" source="j6Lws621C_ySIaAUtMNY-35" target="j6Lws621C_ySIaAUtMNY-37">
          <mxGeometry relative="1" as="geometry" />
        </mxCell>
        <mxCell id="j6Lws621C_ySIaAUtMNY-35" value="SALDO = SALDO - QUANTIDADE" style="rounded=1;whiteSpace=wrap;html=1;labelBackgroundColor=none;fillColor=#F45B69;strokeColor=#028090;fontColor=#E4FDE1;" vertex="1" parent="1">
          <mxGeometry x="-20" y="-590" width="170" height="80" as="geometry" />
        </mxCell>
        <mxCell id="j6Lws621C_ySIaAUtMNY-53" style="edgeStyle=orthogonalEdgeStyle;rounded=1;orthogonalLoop=1;jettySize=auto;html=1;exitX=0.5;exitY=1;exitDx=0;exitDy=0;strokeColor=#028090;fontColor=#E4FDE1;fillColor=#F45B69;" edge="1" parent="1" source="j6Lws621C_ySIaAUtMNY-36" target="j6Lws621C_ySIaAUtMNY-40">
          <mxGeometry relative="1" as="geometry" />
        </mxCell>
        <mxCell id="j6Lws621C_ySIaAUtMNY-36" value="SALDO INSUFICIENTE" style="shape=hexagon;perimeter=hexagonPerimeter2;whiteSpace=wrap;html=1;fixedSize=1;labelBackgroundColor=none;fillColor=#F45B69;strokeColor=#028090;fontColor=#E4FDE1;rounded=1;" vertex="1" parent="1">
          <mxGeometry x="-330" y="-410" width="180" height="80" as="geometry" />
        </mxCell>
        <mxCell id="j6Lws621C_ySIaAUtMNY-65" style="edgeStyle=orthogonalEdgeStyle;rounded=1;orthogonalLoop=1;jettySize=auto;html=1;strokeColor=#028090;fontColor=#E4FDE1;fillColor=#F45B69;" edge="1" parent="1" source="j6Lws621C_ySIaAUtMNY-37" target="j6Lws621C_ySIaAUtMNY-40">
          <mxGeometry relative="1" as="geometry">
            <mxPoint x="-430" y="-240" as="targetPoint" />
            <Array as="points">
              <mxPoint x="90" y="-260" />
              <mxPoint x="-429" y="-260" />
              <mxPoint x="-429" y="-240" />
            </Array>
          </mxGeometry>
        </mxCell>
        <mxCell id="j6Lws621C_ySIaAUtMNY-37" value="SAÃDA &quot; +&amp;nbsp; QUANTIDADE" style="shape=hexagon;perimeter=hexagonPerimeter2;whiteSpace=wrap;html=1;fixedSize=1;labelBackgroundColor=none;fillColor=#F45B69;strokeColor=#028090;fontColor=#E4FDE1;rounded=1;" vertex="1" parent="1">
          <mxGeometry x="30" y="-425" width="120" height="95" as="geometry" />
        </mxCell>
        <mxCell id="j6Lws621C_ySIaAUtMNY-66" style="edgeStyle=orthogonalEdgeStyle;rounded=1;orthogonalLoop=1;jettySize=auto;html=1;exitX=0.5;exitY=1;exitDx=0;exitDy=0;entryX=0.25;entryY=0;entryDx=0;entryDy=0;strokeColor=#028090;fontColor=#E4FDE1;fillColor=#F45B69;" edge="1" parent="1" source="j6Lws621C_ySIaAUtMNY-40" target="j6Lws621C_ySIaAUtMNY-41">
          <mxGeometry relative="1" as="geometry" />
        </mxCell>
        <mxCell id="j6Lws621C_ySIaAUtMNY-40" value="SALDO" style="rounded=1;whiteSpace=wrap;html=1;labelBackgroundColor=none;fillColor=#F45B69;strokeColor=#028090;fontColor=#E4FDE1;" vertex="1" parent="1">
          <mxGeometry x="-555" y="-270" width="120" height="60" as="geometry" />
        </mxCell>
        <mxCell id="j6Lws621C_ySIaAUtMNY-55" style="edgeStyle=orthogonalEdgeStyle;rounded=1;orthogonalLoop=1;jettySize=auto;html=1;exitX=0.5;exitY=1;exitDx=0;exitDy=0;entryX=0.5;entryY=0;entryDx=0;entryDy=0;strokeColor=#028090;fontColor=#E4FDE1;fillColor=#F45B69;" edge="1" parent="1" source="j6Lws621C_ySIaAUtMNY-41" target="j6Lws621C_ySIaAUtMNY-42">
          <mxGeometry relative="1" as="geometry" />
        </mxCell>
        <mxCell id="j6Lws621C_ySIaAUtMNY-56" style="edgeStyle=orthogonalEdgeStyle;rounded=1;orthogonalLoop=1;jettySize=auto;html=1;strokeColor=#028090;fontColor=#E4FDE1;fillColor=#F45B69;" edge="1" parent="1" source="j6Lws621C_ySIaAUtMNY-42" target="j6Lws621C_ySIaAUtMNY-43">
          <mxGeometry relative="1" as="geometry" />
        </mxCell>
        <mxCell id="j6Lws621C_ySIaAUtMNY-42" value="SISTEMA ENCERRADO" style="ellipse;whiteSpace=wrap;html=1;labelBackgroundColor=none;fillColor=#F45B69;strokeColor=#028090;fontColor=#E4FDE1;rounded=1;" vertex="1" parent="1">
          <mxGeometry x="-560" y="-30" width="120" height="80" as="geometry" />
        </mxCell>
        <mxCell id="j6Lws621C_ySIaAUtMNY-43" value="FIM" style="ellipse;whiteSpace=wrap;html=1;labelBackgroundColor=none;fillColor=#F45B69;strokeColor=#028090;fontColor=#E4FDE1;rounded=1;" vertex="1" parent="1">
          <mxGeometry x="-575" y="90" width="120" height="80" as="geometry" />
        </mxCell>
        <mxCell id="j6Lws621C_ySIaAUtMNY-44" value="" style="endArrow=classic;html=1;rounded=1;strokeColor=#028090;fontColor=#E4FDE1;fillColor=#F45B69;exitX=0.163;exitY=0.95;exitDx=0;exitDy=0;exitPerimeter=0;entryX=0.829;entryY=0.35;entryDx=0;entryDy=0;entryPerimeter=0;" edge="1" parent="1" source="j6Lws621C_ySIaAUtMNY-24" target="j6Lws621C_ySIaAUtMNY-33">
          <mxGeometry width="50" height="50" relative="1" as="geometry">
            <mxPoint x="30" y="-680" as="sourcePoint" />
            <mxPoint x="-370" y="-690" as="targetPoint" />
            <Array as="points">
              <mxPoint x="-460" y="-560" />
            </Array>
          </mxGeometry>
        </mxCell>
        <mxCell id="j6Lws621C_ySIaAUtMNY-59" value="TIPODEENTRADA&amp;nbsp; = 1" style="rhombus;whiteSpace=wrap;html=1;rounded=1;strokeColor=#028090;fontColor=#E4FDE1;fillColor=#F45B69;" vertex="1" parent="1">
          <mxGeometry x="-590" y="-740" width="180" height="120" as="geometry" />
        </mxCell>
        <mxCell id="j6Lws621C_ySIaAUtMNY-71" style="edgeStyle=orthogonalEdgeStyle;rounded=1;orthogonalLoop=1;jettySize=auto;html=1;strokeColor=#028090;fontColor=#E4FDE1;fillColor=#F45B69;" edge="1" parent="1" source="j6Lws621C_ySIaAUtMNY-41">
          <mxGeometry relative="1" as="geometry">
            <mxPoint x="-510" y="-1010" as="targetPoint" />
            <Array as="points">
              <mxPoint x="-630" y="-130" />
              <mxPoint x="-630" y="-540" />
              <mxPoint x="-640" y="-540" />
              <mxPoint x="-640" y="-1010" />
              <mxPoint x="-520" y="-1010" />
              <mxPoint x="-520" y="-999" />
              <mxPoint x="-510" y="-999" />
            </Array>
          </mxGeometry>
        </mxCell>
        <mxCell id="j6Lws621C_ySIaAUtMNY-41" value="ENCERRAR ? (SIM)" style="shape=parallelogram;perimeter=parallelogramPerimeter;whiteSpace=wrap;html=1;fixedSize=1;labelBackgroundColor=none;fillColor=#F45B69;strokeColor=#028090;fontColor=#E4FDE1;rounded=1;" vertex="1" parent="1">
          <mxGeometry x="-560" y="-160" width="150" height="60" as="geometry" />
        </mxCell>
      </root>
    </mxGraphModel>
  </diagram>
</mxfile>
